#!OML:ASF E:/inclinewalkrobotboard/Project1/Captureday1/Session1/subject1.ASF
:FULLY-SPECIFIED
:DEGREES
26
root 0 0 0 -2.9346755806576397 -5.0448923249162645 -1.9578494753300435
lowerback 10.661664887164036 2.0182726316071884 1.903950765347338
upperback 0.3752482831058567 2.959900329963639 0.8017328010733751
thorax -5.459891224943406 1.424517910257415 -0.6692688774295649
lowerneck -16.333719461214645 -3.459254669646297 -1.6138726703487234
upperneck 21.198091694683992 -4.561058592568533 0.9506979187261599
head 9.53077077892531 -2.150797338375538 0.00669586282550888
rclavicle 1.273856802038544E-15 -2.6644038099557285E-15
rhumerus -30.241576528325275 -21.928294234296086 -76.284541834376
rradius 27.357404406529383
rwrist 2.030239519686309
rhand -19.038618267798515 23.33614680238884
rfingers 7.125020000000021
rthumb 7.270475825700181 -6.584236487792403
lclavicle -2.7360026585169137E-15 -3.306680100897419E-15
lhumerus -36.16003528346221 3.3140307200467833 82.96328144456045
lradius 24.201799473500813
lwrist 4.255045330763217
lhand -26.722623613439772 24.200372512955813
lfingers 7.125020000000024
lthumb -0.14454909873826693 54.214098939537195
rfemur -7.132644502238073 3.2289671606077484 28.352065358352835
rtibia 71.46529976014364
rfoot 13.573792027730132 -1.797699100869886
rtoes 17.624795862073363
lfemur -19.099070030050143 -2.132400659198844 -21.190421085247632
ltibia 28.60454519675716
lfoot -4.433803147153261 -2.358040037157283
ltoes 8.293484925893978
27
root 0 0 0 -5.031016724606058 -3.99324222141429 0.842827746302905
lowerback 10.986734944753593 1.1128656008117583 -1.1778959483492293
upperback 0.674397023702299 1.3655664578715185 0.5210709472675167
thorax -5.491207552965459 0.7057767911655654 1.006574914727942
lowerneck -16.49870482248392 -2.9318948832355574 -1.8097702023966011
upperneck 21.573438404478797 -3.7688695538519994 0.569267225124134
head 9.616105061150156 -1.818326311453366 -0.004878046703555683
rclavicle 1.1412650301310032E-15 -1.9709434485492468E-16
rhumerus -31.463219342391522 -23.11423773761259 -76.24965352976201
rradius 26.10277787181561
rwrist 2.9098336339751283
rhand -18.857834210192376 22.9704450375494
rfingers 7.125020000000021
rthumb 7.445087191885443 -6.94537746255083
lclavicle -2.1304627947361527E-15 -1.2871427128346732E-16
lhumerus -35.56657030848434 2.1771555022909026 83.06539843393932
lradius 25.106296386719315
lwrist 5.036100914304891
lhand -27.0619454201112 24.404945644672054
lfingers 7.125020000000026
lthumb -0.4682017277912216 54.41464719285828
rfemur -14.03395674322314 0.6260840776470233 25.934469437217352
rtibia 80.70768784545658
rfoot 8.348471426633282 -4.934109849973115
rtoes 14.883196768880675
lfemur -11.774498938731504 -2.7955718602452064 -23.31077721072322
ltibia 28.30586057678507
lfoot -9.441188360800092 -0.8275157460433511
ltoes 2.5115772814463675
28
root 0 0 0 -5.302813875117911 -3.3948548396053018 1.2277359040872358
lowerback 11.425437420437946 0.7265985148931882 -1.7435753167617418
upperback 0.8460905185057365 0.7959451579802778 0.5646873554107359
thorax -5.598952966920074 0.44015557819386447 1.4521628017387949
lowerneck -16.779581879387514 -2.7869860060965093 -2.010573380681969
upperneck 20.599120857103514 -3.4746201025356847 0.38574625764905757
head 9.32429767805246 -1.7211287858389843 0.011952866710861043
rclavicle 8.447816188905416E-16 -1.2764287282548471E-18
rhumerus -31.891649828578522 -23.628816935070304 -76.241380147559
rradius 25.554067376556794
rwrist 3.2655207724230104
rhand -18.806370510183143 22.81706730430452
rfingers 7.1250200000000214
rthumb 7.494498178963204 -7.106108554123164
lclavicle -2.4759180748901702E-15 6.272823320137807E-16
lhumerus -34.70786762191302 0.5656542973207066 83.24267625315126
lradius 26.52432069562938
lwrist 5.765469105305586
lhand -27.275525739016537 24.510571651042557
lfingers 7.125020000000029
lthumb -0.6741525913941624 54.51516756342494
rfemur -24.509073707000834 -0.8025273685023033 22.5675489014943
rtibia 71.50275872501197
rfoot -2.4998891842433535 -7.002161964258146
rtoes 8.557089770711356
lfemur -4.419254121090562 -3.243144438760941 -25.329972087238563
ltibia 27.687030696453252
lfoot -14.488382993940753 0.6409049053615257
ltoes -4.020507081861073
29
root 0 0 0 -4.751118768819531 -2.5773909390742977 1.5771445502862336
lowerback 11.832888364156412 0.22836629231321304 -2.2608762024972986
upperback 1.0891629241126224 0.0849875186631106 0.7778480540889718
thorax -5.554750081490258 0.11133124142903128 2.0689244233234088
lowerneck -16.172639159586364 -2.655457846365561 -2.163669087222115
upperneck 19.522175869996403 -3.178740764183127 0.39411770146582326
head 8.84392067978816 -1.6277764055768544 0.09497254024150628
rclavicle 1.6909811265576815E-15 3.506434789225914E-17
rhumerus -31.787989043536456 -23.284203961899394 -76.31302974792574
rradius 25.853981213065254
rwrist 3.0366277791500407
rhand -18.823651584889436 22.895221258314553
rfingers 7.1250200000000214
rthumb 7.477274570222305 -7.020780284694734
lclavicle -1.4116317231566803E-15 7.528450953887886E-16
lhumerus -32.36641385375037 -1.5502335614388019 83.26674576622933
lradius 28.377941265025505
lwrist 6.452056024891772
lhand -27.487542092852145 24.494707125431898
lfingers 7.125020000000026
lthumb -0.8804576416669709 54.486033338661045
rfemur -28.774432169284882 -0.5474267158093 21.259378541991655
rtibia 61.917741889324134
rfoot -6.9997234973174765 -7.847684446488948
rtoes 4.895669340351015
lfemur -0.6370596835670703 -3.42157677477638 -26.452774677692567
ltibia 26.128866768811363
lfoot -16.121616996413685 1.0404609268664475
ltoes -3.1686211887644156
30
root 0 0 0 -3.6402129364410296 -1.497418987058025 2.3734090922102173
lowerback 11.855409515142789 -0.5121691180676341 -3.264569029729649
upperback 0.990190620290458 -1.0028833299554172 1.0398279813618514
thorax -5.57139812380232 -0.396268412195917 3.074013901677907
lowerneck -17.167027210272593 -2.5976337967012406 -2.373109563863486
upperneck 17.93151814632251 -2.9935012291436447 0.3398062310454375
head 8.48268637192008 -1.5716776207550318 0.13271750684251216
rclavicle 2.035826280601062E-15 -7.105802873496884E-16
rhumerus -31.510413699977892 -22.942466240030676 -76.26563987277916
rradius 26.312378116917237
rwrist 2.732543981002821
rhand -18.853817672270687 22.94905070640754
rfingers 7.125020000000023
rthumb 7.44727308131424 -6.962901052981508
lclavicle -2.8563085196621043E-16 -3.996281113979068E-16
lhumerus -28.222245370091517 -3.899529485821688 82.77643649143006
lradius 30.357621643774813
lwrist 6.922091559514433
lhand -27.814676169836183 24.820428836231937
lfingers 7.125020000000012
lthumb -1.196073103563343 54.81000005681588
rfemur -30.795828723689343 0.052952504659655286 20.709393256018885
rtibia 57.34474056033176
rfoot -7.353912066279667 -9.229606911715114
rtoes 2.6965131147765424
lfemur 3.796921043296206 -3.2346902873902357 -27.93541406852113
ltibia 23.214510675077623
lfoot -17.21739717463573 0.8281221332199351
ltoes -0.4109208693879012
